<svg xmlns="http://www.w3.org/2000/svg" viewBox="0 0 1860 800" font-family="Arial, Helvetica, sans-serif">
  <defs>
    <clipPath id="panel"><rect x="2" y="2" width="1856" height="796" rx="18"/></clipPath>
    <linearGradient id="wing" x1="0" y1="0" x2="0" y2="1">
      <stop offset="0" stop-color="#9AA2AB"/><stop offset="0.5" stop-color="#5C646D"/><stop offset="1" stop-color="#2E343B"/>
    </linearGradient>
    <linearGradient id="sky" x1="0" y1="0" x2="0" y2="1">
      <stop offset="0" stop-color="#0D0D0D"/><stop offset="1" stop-color="#131A1B"/>
    </linearGradient>
  </defs>

  <rect x="0" y="0" width="1860" height="800" rx="18" fill="url(#sky)" stroke="#2A2A2A" stroke-width="2"/>
  <g clip-path="url(#panel)">
    <polyline points="0.0,299.4 132.9,297.6 265.7,294.4 398.6,292.0 531.4,293.0 664.3,295.8 797.1,298.2 930.0,299.0 1062.9,297.8 1195.7,295.4 1328.6,294.1 1461.4,295.0 1594.3,297.1 1727.1,298.7 1860.0,299.5" fill="none" stroke="#00A5AB" stroke-width="2.2" opacity="0.13"/>
<polyline points="-41.8,315.0 97.0,312.4 235.8,307.6 374.7,304.0 513.5,305.4 652.3,309.8 791.2,313.4 930.0,314.6 1068.8,312.6 1207.7,309.0 1346.5,307.1 1485.3,308.6 1624.2,311.7 1763.0,314.1 1901.8,315.3" fill="none" stroke="#00A5AB" stroke-width="2.2" opacity="0.16"/>
<polyline points="-83.7,333.6 61.1,329.9 205.9,323.1 350.7,318.0 495.6,320.0 640.4,326.2 785.2,331.3 930.0,333.0 1074.8,330.2 1219.6,325.1 1364.4,322.4 1509.3,324.5 1654.1,328.9 1798.9,332.3 1943.7,334.0" fill="none" stroke="#00A5AB" stroke-width="2.2" opacity="0.19"/>
<polyline points="-125.5,356.2 25.2,351.1 176.0,341.9 326.8,335.0 477.6,337.8 628.4,346.0 779.2,352.9 930.0,355.2 1080.8,351.6 1231.6,344.7 1382.4,341.0 1533.2,343.7 1684.0,349.7 1834.8,354.3 1985.5,356.6" fill="none" stroke="#00A5AB" stroke-width="2.2" opacity="0.22"/>
<polyline points="-167.4,382.6 -10.6,376.0 146.1,364.0 302.9,355.0 459.7,358.6 616.5,369.4 773.2,378.4 930.0,381.4 1086.8,376.6 1243.5,367.6 1400.3,362.8 1557.1,366.4 1713.9,374.2 1870.6,380.2 2027.4,383.2" fill="none" stroke="#00A5AB" stroke-width="2.2" opacity="0.25"/>
<polyline points="-209.3,414.0 -46.5,405.6 116.3,390.4 279.0,379.0 441.8,383.6 604.5,397.2 767.3,408.6 930.0,412.4 1092.8,406.4 1255.5,395.0 1418.3,388.9 1581.0,393.4 1743.8,403.3 1906.5,410.9 2069.3,414.7" fill="none" stroke="#00A5AB" stroke-width="2.2" opacity="0.28"/>
<polyline points="-251.1,450.3 -82.4,440.2 86.4,421.8 255.1,408.0 423.8,413.5 592.5,430.1 761.3,443.9 930.0,448.5 1098.7,441.1 1267.5,427.3 1436.2,420.0 1604.9,425.5 1773.6,437.4 1942.4,446.6 2111.1,451.2" fill="none" stroke="#00A5AB" stroke-width="2.2" opacity="0.31"/>
<polyline points="-293.0,492.6 -118.2,480.5 56.5,458.5 231.2,442.0 405.9,448.6 580.6,468.4 755.3,484.9 930.0,490.4 1104.7,481.6 1279.4,465.1 1454.1,456.3 1628.8,462.9 1803.5,477.2 1978.2,488.2 2152.9,493.7" fill="none" stroke="#00A5AB" stroke-width="2.2" opacity="0.34"/>
<polyline points="-334.8,540.9 -154.1,526.8 26.6,501.2 207.3,482.0 387.9,489.7 568.6,512.7 749.3,531.9 930.0,538.3 1110.7,528.1 1291.4,508.9 1472.1,498.6 1652.7,506.3 1833.4,523.0 2014.1,535.8 2194.8,542.2" fill="none" stroke="#00A5AB" stroke-width="2.2" opacity="0.37"/>
<polyline points="-376.7,596.1 -190.0,579.8 -3.3,550.2 183.3,528.0 370.0,536.9 556.7,563.5 743.3,585.7 930.0,593.1 1116.7,581.3 1303.3,559.1 1490.0,547.2 1676.7,556.1 1863.3,575.4 2050.0,590.2 2236.7,597.6" fill="none" stroke="#00A5AB" stroke-width="2.2" opacity="0.40"/>
<polyline points="-418.5,658.2 -225.9,639.5 -33.2,605.5 159.4,580.0 352.1,590.2 544.7,620.8 737.4,646.3 930.0,654.8 1122.6,641.2 1315.3,615.7 1507.9,602.1 1700.6,612.3 1893.2,634.4 2085.9,651.4 2278.5,659.9" fill="none" stroke="#00A5AB" stroke-width="2.2" opacity="0.43"/>
<polyline points="-460.4,728.2 -261.7,706.9 -63.1,668.1 135.5,639.0 334.1,650.6 532.8,685.6 731.4,714.7 930.0,724.4 1128.6,708.8 1327.2,679.7 1525.9,664.2 1724.5,675.9 1923.1,701.1 2121.7,720.5 2320.4,730.2" fill="none" stroke="#00A5AB" stroke-width="2.2" opacity="0.46"/>
<polyline points="0.0,299.4 -41.8,315.0 -83.7,333.6 -125.5,356.2 -167.4,382.6 -209.3,414.0 -251.1,450.3 -293.0,492.6 -334.8,540.9 -376.7,596.1 -418.5,658.2 -460.4,728.2" fill="none" stroke="#00A5AB" stroke-width="1.6" opacity="0.16"/>
<polyline points="132.9,297.6 97.0,312.4 61.1,329.9 25.2,351.1 -10.6,376.0 -46.5,405.6 -82.4,440.2 -118.2,480.5 -154.1,526.8 -190.0,579.8 -225.9,639.5 -261.7,706.9" fill="none" stroke="#00A5AB" stroke-width="1.6" opacity="0.16"/>
<polyline points="265.7,294.4 235.8,307.6 205.9,323.1 176.0,341.9 146.1,364.0 116.3,390.4 86.4,421.8 56.5,458.5 26.6,501.2 -3.3,550.2 -33.2,605.5 -63.1,668.1" fill="none" stroke="#00A5AB" stroke-width="1.6" opacity="0.16"/>
<polyline points="398.6,292.0 374.7,304.0 350.7,318.0 326.8,335.0 302.9,355.0 279.0,379.0 255.1,408.0 231.2,442.0 207.3,482.0 183.3,528.0 159.4,580.0 135.5,639.0" fill="none" stroke="#00A5AB" stroke-width="1.6" opacity="0.16"/>
<polyline points="531.4,293.0 513.5,305.4 495.6,320.0 477.6,337.8 459.7,358.6 441.8,383.6 423.8,413.5 405.9,448.6 387.9,489.7 370.0,536.9 352.1,590.2 334.1,650.6" fill="none" stroke="#00A5AB" stroke-width="1.6" opacity="0.16"/>
<polyline points="664.3,295.8 652.3,309.8 640.4,326.2 628.4,346.0 616.5,369.4 604.5,397.2 592.5,430.1 580.6,468.4 568.6,512.7 556.7,563.5 544.7,620.8 532.8,685.6" fill="none" stroke="#00A5AB" stroke-width="1.6" opacity="0.16"/>
<polyline points="797.1,298.2 791.2,313.4 785.2,331.3 779.2,352.9 773.2,378.4 767.3,408.6 761.3,443.9 755.3,484.9 749.3,531.9 743.3,585.7 737.4,646.3 731.4,714.7" fill="none" stroke="#00A5AB" stroke-width="1.6" opacity="0.16"/>
<polyline points="930.0,299.0 930.0,314.6 930.0,333.0 930.0,355.2 930.0,381.4 930.0,412.4 930.0,448.5 930.0,490.4 930.0,538.3 930.0,593.1 930.0,654.8 930.0,724.4" fill="none" stroke="#00A5AB" stroke-width="1.6" opacity="0.16"/>
<polyline points="1062.9,297.8 1068.8,312.6 1074.8,330.2 1080.8,351.6 1086.8,376.6 1092.8,406.4 1098.7,441.1 1104.7,481.6 1110.7,528.1 1116.7,581.3 1122.6,641.2 1128.6,708.8" fill="none" stroke="#00A5AB" stroke-width="1.6" opacity="0.16"/>
<polyline points="1195.7,295.4 1207.7,309.0 1219.6,325.1 1231.6,344.7 1243.5,367.6 1255.5,395.0 1267.5,427.3 1279.4,465.1 1291.4,508.9 1303.3,559.1 1315.3,615.7 1327.2,679.7" fill="none" stroke="#00A5AB" stroke-width="1.6" opacity="0.16"/>
<polyline points="1328.6,294.1 1346.5,307.1 1364.4,322.4 1382.4,341.0 1400.3,362.8 1418.3,388.9 1436.2,420.0 1454.1,456.3 1472.1,498.6 1490.0,547.2 1507.9,602.1 1525.9,664.2" fill="none" stroke="#00A5AB" stroke-width="1.6" opacity="0.16"/>
<polyline points="1461.4,295.0 1485.3,308.6 1509.3,324.5 1533.2,343.7 1557.1,366.4 1581.0,393.4 1604.9,425.5 1628.8,462.9 1652.7,506.3 1676.7,556.1 1700.6,612.3 1724.5,675.9" fill="none" stroke="#00A5AB" stroke-width="1.6" opacity="0.16"/>
<polyline points="1594.3,297.1 1624.2,311.7 1654.1,328.9 1684.0,349.7 1713.9,374.2 1743.8,403.3 1773.6,437.4 1803.5,477.2 1833.4,523.0 1863.3,575.4 1893.2,634.4 1923.1,701.1" fill="none" stroke="#00A5AB" stroke-width="1.6" opacity="0.16"/>
<polyline points="1727.1,298.7 1763.0,314.1 1798.9,332.3 1834.8,354.3 1870.6,380.2 1906.5,410.9 1942.4,446.6 1978.2,488.2 2014.1,535.8 2050.0,590.2 2085.9,651.4 2121.7,720.5" fill="none" stroke="#00A5AB" stroke-width="1.6" opacity="0.16"/>
<polyline points="1860.0,299.5 1901.8,315.3 1943.7,334.0 1985.5,356.6 2027.4,383.2 2069.3,414.7 2111.1,451.2 2152.9,493.7 2194.8,542.2 2236.7,597.6 2278.5,659.9 2320.4,730.2" fill="none" stroke="#00A5AB" stroke-width="1.6" opacity="0.16"/>


    <!-- mesh nodes on terrain + links -->
    
  <g transform="translate(430,585)">
    <ellipse rx="34" ry="12" fill="none" stroke="#00A5AB" stroke-width="3" opacity="0.55"/>
    <rect x="-5" y="-26" width="10" height="22" fill="#3A3A3A"/>
    <circle cy="-34" r="13" fill="#1C1C1C" stroke="#00A5AB" stroke-width="4"/>
    <circle cy="-34" r="5" fill="#F5A700"/>
  </g>
    
  <g transform="translate(930,640)">
    <ellipse rx="34" ry="12" fill="none" stroke="#00A5AB" stroke-width="3" opacity="0.55"/>
    <rect x="-5" y="-26" width="10" height="22" fill="#3A3A3A"/>
    <circle cy="-34" r="13" fill="#1C1C1C" stroke="#00A5AB" stroke-width="4"/>
    <circle cy="-34" r="5" fill="#F5A700"/>
  </g>
    
  <g transform="translate(1330,575)">
    <ellipse rx="34" ry="12" fill="none" stroke="#00A5AB" stroke-width="3" opacity="0.55"/>
    <rect x="-5" y="-26" width="10" height="22" fill="#3A3A3A"/>
    <circle cy="-34" r="13" fill="#1C1C1C" stroke="#00A5AB" stroke-width="4"/>
    <circle cy="-34" r="5" fill="#F5A700"/>
  </g>
    <g stroke="#00A5AB" stroke-width="4" stroke-dasharray="8 10" opacity="0.85">
      <line x1="475" y1="572" x2="885" y2="618"/>
      <line x1="975" y1="618" x2="1285" y2="562"/>
    </g>

    <!-- tracking rays -->
    <g stroke="#F5A700" stroke-width="2.5" opacity="0.45">
      <line x1="430" y1="545" x2="690" y2="290"/>
      <line x1="930" y1="600" x2="775" y2="305"/>
    </g>

    <!-- past trajectory -->
    <path d="M60 320 Q 360 275 620 250" fill="none" stroke="#F5A700" stroke-width="3" stroke-dasharray="2 12" opacity="0.8"/>

    <!-- flying-wing UAV -->
    <g transform="translate(745,235) rotate(-6)">
      <path d="M-115 32 L0 -26 L115 32 L62 22 L0 2 L-62 22 Z" fill="url(#wing)" stroke="#B9BFC6" stroke-width="2"/>
      <ellipse cx="0" cy="-4" rx="16" ry="9" fill="#7E868F"/>
    </g>

    <!-- 3D bounding box (perspective cube) -->
    <g stroke="#E5484D" stroke-width="3" fill="none" stroke-dasharray="9 7">
      <rect x="615" y="175" width="265" height="125"/>
      <rect x="655" y="150" width="265" height="125" opacity="0.55"/>
    </g>
    <g stroke="#E5484D" stroke-width="2.5" opacity="0.55">
      <line x1="615" y1="175" x2="655" y2="150"/>
      <line x1="880" y1="175" x2="920" y2="150"/>
      <line x1="615" y1="300" x2="655" y2="275"/>
      <line x1="880" y1="300" x2="920" y2="275"/>
    </g>
    <text x="617" y="337" fill="#E5484D" font-size="26" font-weight="bold" letter-spacing="1">FLYING-WING UAV · 3D TRACKED</text>

    <!-- output: low data -->
    <g>
      <line x1="1395" y1="560" x2="1462" y2="520" stroke="#F5A700" stroke-width="4"/>
      <path d="M1482 508 l-30 -2 12 26 z" fill="#F5A700"/>
    </g>
    <rect x="1490" y="365" width="330" height="84" rx="12" fill="#1A1A1A" stroke="#00A5AB" stroke-width="4"/>
    <text x="1655" y="403" fill="#00A5AB" font-size="28" font-weight="bold" text-anchor="middle">OPERATORS / C2</text>
    <text x="1655" y="435" fill="#B0B0B0" font-size="22" text-anchor="middle">the battlespace, live in 3D</text>

    <rect x="1490" y="470" width="330" height="84" rx="12" fill="#1A1A1A" stroke="#F5A700" stroke-width="4"/>
    <text x="1655" y="508" fill="#F5A700" font-size="28" font-weight="bold" text-anchor="middle">EFFECTORS</text>
    <text x="1655" y="540" fill="#B0B0B0" font-size="22" text-anchor="middle">machine-ready 3D tracks</text>

    <!-- low-data tag -->
    <g transform="translate(1490,590)">
      <rect width="330" height="60" rx="10" fill="none" stroke="#3A3A3A" stroke-width="2"/>
      <rect x="22" y="24" width="7" height="14" fill="#F5A700"/>
      <rect x="33" y="18" width="7" height="20" fill="#F5A700" opacity="0.65"/>
      <rect x="44" y="28" width="7" height="10" fill="#F5A700" opacity="0.4"/>
      <text x="66" y="25" fill="#9A9A9A" font-size="17" letter-spacing="2">LOW DATA_</text>
      <text x="66" y="48" fill="#F5A700" font-size="21" font-weight="bold">kilobits, not gigabytes</text>
    </g>

    <!-- title -->
    <text x="70" y="88" fill="#F5A700" font-size="40" font-weight="bold" letter-spacing="3">LIVE 3D BATTLESPACE_</text>
    <text x="70" y="130" fill="#9A9A9A" font-size="27">the mesh rebuilds terrain and every moving object in 3D</text>

    <!-- bottom caption -->
    <text x="70" y="755" fill="#8A8A8A" font-size="24"><tspan fill="#F5A700" font-style="italic" font-weight="bold">&gt;&gt; field-proven_</tspan>  live 3D pose &amp; track demonstrated in field tests</text>
  </g>
</svg>